<?xml version="1.0" standalone="no"?><!DOCTYPE svg PUBLIC "-//W3C//DTD SVG 1.1//EN" "http://www.w3.org/Graphics/SVG/1.1/DTD/svg11.dtd"><svg t="1636970088286" class="icon" viewBox="0 0 1024 1024" version="1.1" xmlns="http://www.w3.org/2000/svg" p-id="3557" xmlns:xlink="http://www.w3.org/1999/xlink" width="200" height="200"><defs><style type="text/css"></style></defs><path d="M897.977795 641.2272c-39.873126-25.179472-95.643314-50.562583-95.643314-116.249631l0-52.192709c0-86.828554-56.166207-162.469302-139.449006-203.118094l0-70.907956c0-64.843844-62.498426-117.432573-139.597385-117.432573-77.099982 0-139.605571 52.588729-139.605571 117.432573l0 70.755484c-83.455737 40.60479-139.749858 116.333542-139.749858 203.270567l0 52.192709c0 65.946968-56.221466 91.26254-96.122221 116.541273-7.087419 3.768837-13.514805 8.322549-19.119453 13.518898-0.180102 0.13917-0.35918 0.271176-0.539282 0.411369 0 0 0.060375 0.01228 0.088004 0.01228-14.778588 13.858636-23.839965 32.110325-23.839965 52.192709L104.399745 811.93514c0 14.402011 13.875009 26.102495 31.018457 26.102495l277.508361 0c7.267521 44.505633 52.528354 78.842673 107.48706 78.842673 54.887075 0 100.147908-34.337039 107.394962-78.842673l283.104823 0c17.115819 0 31.022551-11.700483 31.022551-26.102495L941.935959 706.646142C941.508217 679.005618 924.028101 654.874011 897.977795 641.2272L897.977795 641.2272 897.977795 641.2272zM445.732737 198.75881c0-35.967166 34.780131-65.243957 77.555353-65.243957 42.74657 0 77.555353 29.27679 77.555353 65.243957l0 48.558949c-24.687262-6.011924-50.714032-9.401114-77.707826-9.401114-26.90579 0-52.79953 3.37691-77.402881 9.340739L445.732737 198.75881 445.732737 198.75881 445.732737 198.75881zM520.413624 890.785999c-37.690414 0-69.136613-22.745027-76.108399-52.756551l152.116513 0C589.478606 868.040972 558.064129 890.785999 520.413624 890.785999L520.413624 890.785999 520.413624 890.785999zM879.889835 785.836739 166.441776 785.836739l0-78.18264c0-8.079002 4.240581-13.831007 7.878434-17.244756l0.272199-0.251733c1.906419-1.774413 4.060479-3.302209 6.4192-4.552689l2.122337-1.13587 2.00261-1.258667c4.269233-2.726088 8.782014-5.439896 13.355169-8.206916 40.200584-24.310685 107.48706-65.011666 107.48706-150.029992l0-52.188616c0-100.731192 97.402377-182.676529 217.152738-182.676529 119.726825 0 217.156832 81.945337 217.156832 182.676529l0 52.188616c0 85.030605 67.254753 125.719306 107.459431 150.029992 4.449335 2.686179 8.81783 5.328355 12.994965 7.955182l2.146896 1.358951 2.270716 1.203408c9.001001 4.708232 14.481829 12.751419 14.721283 21.541619l0 78.774111L879.889835 785.836739 879.889835 785.836739zM879.889835 785.836739" p-id="3558"></path></svg>