<?xml version="1.0" standalone="no"?><!DOCTYPE svg PUBLIC "-//W3C//DTD SVG 1.1//EN" "http://www.w3.org/Graphics/SVG/1.1/DTD/svg11.dtd"><svg t="1636450020171" class="icon" viewBox="0 0 1024 1024" version="1.1" xmlns="http://www.w3.org/2000/svg" p-id="3524" xmlns:xlink="http://www.w3.org/1999/xlink" width="200" height="200"><defs><style type="text/css"></style></defs><path d="M911.36 901.12a10.24 10.24 0 0 1-10.24 10.24H122.88a10.24 10.24 0 0 1-10.24-10.24V122.88a10.24 10.24 0 0 1 10.24-10.24h829.2352v-20.48a20.50048 20.50048 0 0 0-20.48-20.48H102.4A30.76096 30.76096 0 0 0 71.68 102.4v819.2A30.76096 30.76096 0 0 0 102.4 952.32h819.2a30.76096 30.76096 0 0 0 30.72-30.72V459.42784l-40.96 15.03232z" fill="#666666" p-id="3525"></path><path d="M931.84 256h-20.48v77.33248l40.96-14.86848V276.48a20.50048 20.50048 0 0 0-20.48-20.48zM911.36 430.77632l40.96-14.86848v-53.73952l-40.96 14.86848v53.73952zM242.52416 227.34848a35.38944 35.38944 0 0 0-35.5328 34.6112v496.8448a35.4304 35.4304 0 0 0 35.5328 34.67264h295.7312a35.65568 35.65568 0 0 0 35.61472-35.6352V263.00416a35.65568 35.65568 0 0 0-35.6352-35.6352z m291.47136 524.22656a2.048 2.048 0 0 1-2.048 2.048H248.81152a2.048 2.048 0 0 1-2.048-2.048V269.25056a2.048 2.048 0 0 1 2.048-2.048h283.17696a2.048 2.048 0 0 1 2.048 2.048zM691.56864 226.42688a54.80448 54.80448 0 0 0-54.74304 54.74304l-0.06144 372.98176 2.62144 10.30144 65.14688 115.89632a26.33728 26.33728 0 0 0 22.34368 12.53376h0.34816a26.25536 26.25536 0 0 0 22.3232-13.1072l64.69632-114.85184 2.7648-10.24V281.16992a54.80448 54.80448 0 0 0-54.74304-54.74304z m85.31968 423.50592l-48.2304 85.68832a2.048 2.048 0 0 1-3.56352 0l-48.39424-86.69184V380.2112a2.048 2.048 0 0 1 2.048-2.048h96.3584a2.048 2.048 0 0 1 2.048 2.048z m0.24576-368.76288v55.0912a2.048 2.048 0 0 1-2.048 2.048h-96.33792a2.048 2.048 0 0 1-2.048-2.048v-55.0912a14.88896 14.88896 0 0 1 14.86848-14.88896h70.69696a14.90944 14.90944 0 0 1 14.86848 14.88896z" fill="#666666" p-id="3526"></path><path d="M479.29344 441.69216h-177.80736a19.92704 19.92704 0 1 0 0 39.85408h177.80736a19.92704 19.92704 0 1 0 0-39.85408zM479.29344 344.12544h-177.80736a19.92704 19.92704 0 1 0 0 39.87456h177.80736a19.92704 19.92704 0 1 0 0-39.87456zM479.29344 636.8256h-177.80736a19.92704 19.92704 0 1 0 0 39.87456h177.80736a19.92704 19.92704 0 1 0 0-39.87456zM479.29344 539.25888h-177.80736a19.92704 19.92704 0 1 0 0 39.87456h177.80736a19.92704 19.92704 0 1 0 0-39.87456z" fill="#666666" p-id="3527"></path></svg>